<svg xmlns="http://www.w3.org/2000/svg" width="256" height="256"><path fill-opacity=".016" d="M0 128.004v128.004l128.25-.254 128.25-.254.254-127.75L257.008 0H0v128.004m.485.496c0 70.4.119 99.053.265 63.672.146-35.38.146-92.98 0-128C.604 29.153.485 58.1.485 128.5" fill="#1976D2" fill-rule="evenodd"/><path fill-opacity=".151" d="M104.75.667c-.963.264-1.75 1.32-1.75 2.347 0 2.645 1.67 3.355 2.293.975.286-1.094.95-1.989 1.476-1.989 1.15 0 2.482 10.183 1.623 12.42-.46 1.201.045 1.58 2.108 1.58 2.181 0 2.579-.344 2.025-1.75-.38-.963-.941-4.112-1.247-7-.598-5.625.667-6.93 3.391-3.5 1.276 1.606 1.367 1.545 1.11-.75C115.53.773 115.009.483 111 .343c-2.475-.086-5.287.06-6.25.324M124.926 4.5c-1.21 2.75-3.068 6.238-4.13 7.75L118.864 15h2.235c1.229 0 1.95-.284 1.603-.631-1.315-1.315 1.264-4.191 3.285-3.662 1.95.51 2.427 1.433 2.088 4.043-.095.728.951 1.25 2.504 1.25 1.995 0 2.416-.315 1.674-1.25-.545-.687-1.558-3.725-2.251-6.75-2.013-8.792-2.578-9.182-5.076-3.5m14.717-1.874c1.382.568-1.181 11.469-2.955 12.567-1.391.86 3.275 2.73 7.647 3.065 2.711.207 3.204-.116 3.444-2.258.257-2.295.166-2.356-1.11-.75C145 17.352 141 17.583 141 15.576c0-3.337 2.432-11.577 3.422-11.591.593-.009.403-.452-.422-.985-.825-.533-2.4-.941-3.5-.906-1.1.035-1.486.275-.857.532M92.5 4c-.34.55-.186 1 .341 1 1.231 0 3.547 9.547 2.793 11.512-.37.964.034 1.483 1.147 1.473 1.907-.017 5.4-1.945 3.569-1.97-1.02-.013-3.671-8.49-3.68-11.765-.004-1.487-3.284-1.683-4.17-.25M81.354 6.692c-5.219 1.021-7.315 7.667-4.008 12.713 3.671 5.603 11.058 3.822 11.838-2.852.228-1.954.309-3.553.18-3.553-.128 0-1.455.464-2.947 1.032-2.538.965-2.596 1.116-.903 2.355C87.786 18.048 86.828 21 84.017 21c-2.32 0-6.007-5.291-6.013-8.628-.006-3.256 2.666-5.059 5.175-3.493 1.108.693 2.208 1.068 2.442.833.6-.6-.698-3.741-1.478-3.576-.354.075-1.609.325-2.789.556m43.316.725c-.299.78.103 1.666.893 1.969.949.364 1.437-.117 1.437-1.417 0-2.276-1.529-2.638-2.33-.552M65.25 14.22c-2.596 1.253-2.87 2.328-.795 3.124 1.708.656 6.055 8.589 5.701 10.404-.19.977.31.997 2.301.09C73.855 27.2 75 26.275 75 25.78c0-.494-.386-.66-.857-.368-1.03.636-6.703-9.38-6.322-11.162.309-1.448.369-1.447-2.571-.03M50.069 25.181c-3.799 2.793-4.09 3.267-2.397 3.894 2.397.886 7.915 7.98 7.527 9.675-.454 1.981.516 1.503 4.798-2.366 4.727-4.271 5.065-6.969 1.414-11.307-3.293-3.914-5.912-3.89-11.342.104m1.934.315c-1.023 1.234-.649 2.284 2.127 5.97 3.782 5.019 4.095 5.166 6.299 2.963 2.194-2.194 1.971-3.8-1.018-7.352-2.822-3.354-5.468-3.918-7.408-1.581M32 44.04c0 .507 1.575 3.383 3.5 6.393 1.925 3.009 3.5 6.264 3.5 7.233 0 1.68.082 1.68 1.75-.008 1.667-1.687 1.667-1.819 0-2.764-2.107-1.196-2.257-3.228-.356-4.806 1.072-.89 1.738-.813 2.885.334 1.321 1.32 1.674 1.287 3.106-.295 1.928-2.13 2.097-3.459.365-2.866-.687.235-4.288-.6-8-1.857-3.712-1.257-6.75-1.87-6.75-1.364m4.068 5.086c.568 1.062 1.46 1.666 1.982 1.343 1.552-.959 1.087-2.2-1.033-2.754-1.695-.443-1.833-.239-.949 1.411m-11.913 6.997c-.711 1.139-1.15 2.147-.974 2.238.175.092 2.906 1.393 6.069 2.892 3.163 1.499 5.75 3.235 5.75 3.859 0 .794.448.761 1.5-.112.825-.685 1.5-1.94 1.5-2.789 0-.849-.28-1.265-.622-.923-.856.857-10.072-3.919-11.097-5.751-.697-1.244-1.042-1.149-2.126.586M82 61.5c0 1.307 4.889 1.5 38 1.5s38-.193 38-1.5-4.889-1.5-38-1.5-38 .193-38 1.5m-51.788 8.154c1.056 1.184 1.49 2.768 1.133 4.133-.318 1.217-.711 2.213-.873 2.213-1.762 0-11.48-4.552-11.504-5.389C18.932 69.346 16 72.926 16 74.235c0 .469.563.735 1.25.591C18.963 74.468 29 78.202 29 79.198c0 2.413 1.762.149 3.339-4.291 2.02-5.685 2.084-5.379-1.339-6.416-2.405-.728-2.435-.684-.788 1.163m13.01 3.514c.243.733 2.543 1.718 5.11 2.19l4.668.858v35.924c0 27.863-.28 36.01-1.25 36.313-.687.215-2.966.677-5.064 1.026-2.31.385-3.657 1.106-3.415 1.828.565 1.685 43.674 1.652 49.238-.037C103.421 147.957 109 140.975 109 130.635c0-9.699-4.753-15.553-15.585-19.199-6.29-2.116-6.472-2.264-3.579-2.9 4.656-1.023 11.137-6.227 12.845-10.316 2.117-5.065 1.382-13.918-1.488-17.95-1.214-1.704-4.341-4.149-6.95-5.434-4.488-2.21-5.999-2.354-28.104-2.668-19.117-.271-23.28-.09-22.917 1m74.778.218c0 .877 1.655 1.635 4.5 2.062l4.5.675V149l-2.25.014c-3.881.023-6.75 1.163-6.75 2.681 0 1.251 3.496 1.414 24.25 1.133l24.25-.328 6.659-3.155C187.438 142.58 195 129.624 195 111.924c0-18.684-10.24-33.651-26.281-38.415-7.139-2.12-50.719-2.226-50.719-.123M64 92.003v17.248l8.336-.438c13.664-.717 18.659-5.311 18.662-17.162.004-11.85-4.388-15.815-18.248-16.477L64 74.755v17.248m75 20.52v37.724l11.75-.459c13.104-.512 17.719-1.924 23.002-7.037 5.229-5.06 7.38-12.296 7.953-26.751.833-21.012-2.858-32.066-12.627-37.808-4.204-2.472-5.621-2.721-17.328-3.042L139 74.799v37.724m77.399-25.773c1 8.745 3.967 19.083 7.392 25.75 3.288 6.403 4.966 12.5 3.44 12.5-.51 0-1.712-1.912-2.671-4.25-4.632-11.287-7.566-14.762-12.445-14.736-4 .021-7.115 1.086-7.115 2.433 0 1.416 6.663 6.354 12.707 9.417 6.077 3.081 9.749 9.635 8.99 16.046-.312 2.631-1.222 6.316-2.023 8.187-1.435 3.353-1.456 3.283-1.461-4.731-.005-9.151-.713-12.366-2.721-12.366-2.494 0-2.645 1.956-.452 5.857 1.19 2.117 1.945 4.703 1.678 5.746-.352 1.373-.518 1.154-.602-.794-.134-3.109-1.791-4.534-3.401-2.924-.814.814-1.852.4-3.888-1.55-2.285-2.19-3.61-2.63-7.484-2.483-2.588.098-4.962.434-5.275.748-.312.314.782 1.677 2.432 3.031a258.057 258.057 0 0 1 5.5 4.656c1.375 1.207 3.684 2.947 5.13 3.866 2.113 1.343 2.959 3.149 4.301 9.181l1.67 7.509-3.958 7.828c-2.177 4.306-5.563 9.368-7.524 11.249l-3.565 3.42.606-5.42c.333-2.981 1.224-6.946 1.981-8.811.756-1.865 1.637-5.69 1.957-8.5.977-8.566-2.714-14.039-5.437-8.062-1.491 3.271-1.528 16.108-.049 17.022 1.197.74.599 7.872-1.246 14.853-.696 2.635-1.299 3.495-1.839 2.622-.442-.715-1.341-.968-1.998-.562-.693.428-.494-.615.474-2.487 1.257-2.431 1.384-3.504.515-4.36-1.413-1.392-4.354 2.048-3.547 4.15.557 1.451-2.29 7.729-3.126 6.894-.279-.279-.021-1.417.574-2.528 1.538-2.873 1.354-3.456-.902-2.866-1.665.436-1.825.225-1-1.317 1.299-2.428 1.249-7.291-.107-10.265-1.019-2.238-9.15-7.129-10.164-6.115-.254.253 1.057 4.895 2.912 10.314 3.158 9.223 3.301 10.196 2.238 15.225-1.638 7.754-2.378 8.713-9.224 11.951-7.45 3.525-10.447 3.816-5.654.549 4.052-2.762 9.39-9.918 10.352-13.877.966-3.977-.506-3.398-5.09 2-2.218 2.613-6.676 6.277-9.906 8.144-3.231 1.866-8.363 4.87-11.405 6.675-3.042 1.806-6.867 3.604-8.5 3.996l-2.969.713 2.68-2.156c3.583-2.883 9.211-10.065 8.469-10.807-.326-.326-3.643.994-7.371 2.933-11.68 6.076-22.595 8.057-31.778 5.767-1.922-.479.234-.706 6-.631 8.631.111 8.991.028 8.781-2.026-.163-1.594.603-2.441 3-3.314 5.836-2.127 8.219-3.601 8.219-5.082 0-.804-.971-1.6-2.157-1.769-2.103-.3-3.131.445-5.631 4.081-.671.975-3.361 2.418-5.977 3.205-4.676 1.408-4.739 1.397-3.669-.603.599-1.119 2.63-2.944 4.512-4.054 3.426-2.022 4.353-4.128 2.359-5.361-1.184-.732-4.919 2.233-4.969 3.944-.043 1.517-4.23 6.13-6.823 7.517-2.701 1.446-2.79-.029-.145-2.422 2.407-2.178 2.634-4.773.379-4.323-.892.178-2.129 1.888-2.75 3.802-1.468 4.523-5.072 5.944-9.488 3.741-5.094-2.541-3.66-.236 4.991 8.02 5.456 5.207 8.999 9.566 10.769 13.25 1.567 3.263 3.399 5.637 4.514 5.851 1.404.271 1.716-.058 1.237-1.305-.503-1.311-.216-1.532 1.345-1.037 1.092.347 2.468.331 3.059-.034 1.594-.985-1.92-4.465-4.508-4.465-1.194 0-3.891-1.807-6.095-4.082l-3.953-4.083 3.5 1.471a978.58 978.58 0 0 1 8.713 3.736c4.438 1.928 5.454 2.064 6.84.914 1.497-1.243 1.485-1.455-.154-2.653-.98-.717-3.608-1.348-5.84-1.403-2.233-.055-5.184-.46-6.559-.9l-2.5-.801 2.691-.099c1.48-.055 2.971-.553 3.313-1.107.996-1.611-2.402-2.361-5.108-1.128-2.987 1.361-7.789-.336-10.896-3.852l-2-2.263 3.5.731c5.888 1.23 19.89 5.392 22.261 6.618 1.232.636 6.187 3.639 11.011 6.673 4.825 3.034 8.922 5.339 9.104 5.122.182-.217-.538-2.347-1.6-4.735-1.583-3.559-2.862-4.764-7.103-6.692-7.173-3.261-2.539-3.272 5.656-.014 3.394 1.35 8.342 2.934 10.996 3.521 2.653.588 7.026 2.183 9.716 3.547 5.827 2.953 5.968 2.97 5.926.729-.061-3.244-8.802-9.572-15.58-11.279l-6.251-1.573 7.682-1.712c7.893-1.759 27.639-1.839 38.432-.155 6.624 1.033 6.405-1.414-.412-4.607-4.273-2.001-6.554-2.388-13.25-2.246-4.448.094-7.413-.08-6.588-.387.825-.307 4.027-2.1 7.115-3.984 3.088-1.883 8.245-4.036 11.459-4.783 5.132-1.193 6.216-1.167 8.885.214 1.673.866 5.066 2.128 7.541 2.806 2.475.677 5.287 1.555 6.25 1.951 3.038 1.248 2.193-4.206-1.173-7.572-3.689-3.689-7.213-3.775-17.48-.423-4.212 1.375-7.886 2.5-8.163 2.5-1.181 0 6.464-6.007 8.658-6.802 2.916-1.058 10.276-.607 12.883.789 2.803 1.5 6.025 1.24 6.025-.487 0-1.514-.467-1.701-5-2a664.13 664.13 0 0 1-6-.435l-3.5-.27 3.186-.758c4.553-1.084 13.217.524 15.774 2.926 2.525 2.372 6.54 2.723 6.54.572 0-2.15-2.796-3.298-10.049-4.129l-6.451-.739 3.443-1.415c1.893-.778 6.052-1.509 9.241-1.625 5.847-.211 8.608-1.537 7.37-3.54-.927-1.5-4.184-1.361-6.839.291-1.218.758-3.79 1.66-5.715 2.004l-3.5.626 3.25-2.577c3.407-2.701 4.293-5.431 1.763-5.431-.819 0-2.557 1.694-3.864 3.765-3.115 4.933-4.279 5.807-9.649 7.242-2.475.661-5.729 1.838-7.231 2.614-2.57 1.327-2.49 1.089 1.338-4.031 3.81-5.094 10.511-10.59 12.911-10.59 2.315 0 8.687-4.043 12.366-7.845 6.046-6.248 3.126-8.709-5.107-4.303-2.507 1.341-8.277 7.841-8.277 9.323 0 1.109-2.899 3.734-4.191 3.793-.38.018-.045-1.206.744-2.718s1.437-3.327 1.441-4.032c.003-.704.943-4.062 2.088-7.46 2.219-6.589 10.608-18.207 13.9-19.252 3.117-.99 7.683-6.981 9.509-12.48.942-2.835 1.487-5.382 1.21-5.658-.924-.924-10.647 4.618-12.085 6.89-1.582 2.498-3.1 8.409-2.771 10.792.117.852-1.349 3.327-3.258 5.5l-3.471 3.95 1.442-4.909c.793-2.7 1.442-8.013 1.442-11.807 0-3.794.492-8.853 1.094-11.243.93-3.695.768-5.368-1.084-11.192-1.197-3.767-2.843-8.424-3.656-10.349-1.917-4.537-7.6-12.996-8.733-12.998-.484-.001-.584 2.586-.222 5.748M13.161 85.547c-1.354 2.97-1.557 7.816-.296 7.036C14.049 91.852 25 94.219 25 95.206c0 .437.41.794.912.794 1.212 0 2.418-7.384 1.618-9.907-.779-2.454-4.152-3.652-5.989-2.127-.937.778-1.565.804-2.011.083-1.266-2.05-5.172-1.131-6.369 1.498m1.01 2.122c.194 1.017 1.384 1.978 2.678 2.162 1.803.257 2.25-.082 1.98-1.5-.194-1.017-1.384-1.978-2.678-2.162-1.803-.257-2.25.082-1.98 1.5m6.815.356c-1.337 2.5-1.347 2.487 2.334 3.371 2.624.63 2.798.485 2.5-2.101-.398-3.456-3.261-4.208-4.834-1.27m198.415 3.75c-.054 2.599.114 3.6.374 2.225.501-2.65.712-2.161 6.45 15 1.626 4.865 2.27 5.906 2.558 4.139.477-2.922-5.19-20.83-7.551-23.864-1.714-2.203-1.733-2.177-1.831 2.5m.654 5.571c-.124 1.91 3.153 11.664 4.118 12.261.682.421.786-.177.303-1.732-1.241-3.991-4.364-11.428-4.421-10.529M10.899 101c-.089 1.709-.276 1.946-.588.75C9.851 99.99 7 99.239 7 100.878c0 2.391 3.527 3.581 9.673 3.265 4.012-.206 6.944.124 7.863.887 1.238 1.027 1.452.694 1.385-2.158-.043-1.854-.302-2.82-.576-2.145-.616 1.522-12.464.536-13.58-1.13-.418-.625-.791-.022-.866 1.403m201.286 9.035c3.285 1.735 5.777 3.965 4.431 3.965-.276 0-2.187-.995-4.248-2.21-2.06-1.216-3.432-1.702-3.048-1.08.385.621 2.773 2.289 5.309 3.706 2.535 1.417 4.051 1.903 3.368 1.08-.797-.96-.857-1.496-.169-1.496.59 0 1.531.787 2.092 1.75 1.602 2.751 1.249.478-.43-2.77-1.793-3.467-4.326-4.996-8.174-4.936-2.803.044-2.799.053.869 1.991m-193.353 1.863c-.922 1.476-1.562 1.663-2.876.842-3.199-1.997-4.956-.202-4.956 5.063v4.866l6.232-.852c3.428-.469 6.803-.634 7.5-.366 1.862.714 1.636-6.48-.289-9.228-1.907-2.724-4.036-2.847-5.611-.325m45.396 18.852.272 18.75 10.064-.049c11.37-.056 15.224-1.528 19.117-7.306 4.358-6.467 3.941-18.542-.852-24.636C89.468 113.237 85.243 112 74.01 112H63.956l.272 18.75m-44.527-17.118c-.385.386-.701 1.8-.701 3.143 0 2.164.313 2.363 2.748 1.752 3.587-.9 3.892-1.289 2.609-3.325-1.176-1.868-3.555-2.67-4.656-1.57m-7.034 2.035c-1.518 1.518-.52 3.333 1.833 3.333 1.833 0 2.5-.533 2.5-2 0-1.951-2.841-2.825-4.333-1.333m227.184 5.852c-1.722.935-3.208 3.08-4.247 6.13-.879 2.579-1.416 4.873-1.192 5.096.223.223.722-.641 1.109-1.92s1.688-3.45 2.891-4.825c2.915-3.33 4.919-6.009 4.46-5.96-.204.022-1.564.688-3.021 1.479m1.71 2.761c-6.011 6.834-7.349 10.701-2.341 6.761 2.401-1.888 6.388-8.766 5.562-9.592-.214-.214-1.663 1.06-3.221 2.831m-31.225 9.354c5.083 3.96 5.928 5.1 2.414 3.256-2.245-1.178-2.246-1.176-.324.988 1.461 1.644 2.122 1.861 2.735.896 1.206-1.901 1.069-2.347-1.75-5.697-1.657-1.969-3.516-3.077-5.164-3.077-2.384 0-2.228.27 2.089 3.634m6.992 2.866c.293 1.1 1.115 5.279 1.826 9.287 1.353 7.618 2.641 7.459 2.776-.343.05-2.895-.675-5.041-2.533-7.5-1.66-2.197-2.41-2.72-2.069-1.444m-10.164 19c.035 5.637.09 5.775.915 2.279.517-2.191.502-4.659-.037-6-.701-1.746-.907-.876-.878 3.721m-2.522 1.25c-.862 5.217-.791 8.25.194 8.25.46 0 .933-2.7 1.052-6 .246-6.795-.325-7.824-1.246-2.25m24.117 2.407c-2.343 2.169-3.322 3.496-2.177 2.948s2.683-1.72 3.418-2.605c.735-.885 2.273-2.058 3.418-2.607 1.145-.549-.168 1.091-2.918 3.645-4.19 3.891-4.469 4.348-1.72 2.819 1.804-1.003 4.595-3.181 6.203-4.84l2.923-3.017-2.444-.144c-1.59-.093-3.934 1.236-6.703 3.801M82 162.5c0 1.307 4.889 1.5 38 1.5s38-.193 38-1.5-4.889-1.5-38-1.5-38 .193-38 1.5m103.525 6.459c-.57.922 2.4 11.449 3.048 10.802.342-.342-.906-6.008-2.039-9.261-.656-1.882-.611-1.895.76-.229.801.974 1.779 3.674 2.173 6 .66 3.901.788 4.043 1.646 1.834 1.056-2.721.363-5.794-1.886-8.355-1.728-1.968-2.829-2.203-3.702-.791m51.225 5.703c.688.278 1.813.278 2.5 0 .688-.277.125-.504-1.25-.504s-1.937.227-1.25.504M189.623 186.5c-2.968 10.898-3.002 12.254-.203 7.982 1.103-1.683 1.574-4.04 1.355-6.781-.329-4.116-.352-4.14-1.152-1.201m7.852 1.139c-1.663.831-3.784 2.833-4.712 4.451-1.589 2.769-1.587 2.885.025 2.007 1.678-.914 9.035-8.159 8.158-8.033-.245.035-1.807.744-3.471 1.575m19.145 1.286c2.266.371 5.304 1.45 6.75 2.398 3.18 2.084 3.559.441.407-1.766-1.308-.917-4.084-1.506-6.75-1.432l-4.527.125 4.12.675m-2.12 1.896c.55.586 2.975 1.506 5.389 2.047 3.695.827 4.17.768 3-.37-1.696-1.651-9.907-3.292-8.389-1.677m-77 5.179c-.782 1.266.542 1.266 2.5 0 1.293-.835 1.266-.971-.191-.985-.93-.008-1.969.435-2.309.985m33.5 2.5c-.685.825-.852 1.52-.372 1.545.479.025-1.153 1.13-3.628 2.455-5.982 3.203-4.294 3.189 2.033-.017 4.835-2.45 6.735-4.083 3.217-2.764-1.532.574-1.579.446-.378-1.032.755-.928 1.148-1.687.873-1.687-.275 0-1.06.675-1.745 1.5m-45.5 4.5c-2.768.704-2.806.771-.5.866 1.375.057 3.175-.333 4-.866 1.702-1.1.822-1.1-3.5 0m58.645-.111c-.792.502 1.702.67 6 .405 9.887-.61 10.892-1.122 2.355-1.2-3.85-.035-7.61.323-8.355.795m-37.883 1.376c.131.655-2.012 1.97-4.762 2.92-3.071 1.061-4.119 1.744-2.718 1.771 2.668.051 8.699-2.306 9.59-3.749.339-.549-.051-1.253-.866-1.566-.845-.325-1.38-.057-1.244.624m44.988.451c1.512.229 3.988.229 5.5 0s.275-.416-2.75-.416-4.262.187-2.75.416m-37.046 6.822c.296.295 2.733.791 5.417 1.102 2.683.311 6.849 1.419 9.256 2.462 5.544 2.404 6.454 2.391 2.623-.038-3.562-2.258-19.22-5.451-17.296-3.526m5.796 3.384c1.375.412 4.075 1.017 6 1.344l3.5.595-3-1.386c-1.65-.761-4.35-1.366-6-1.344-2.902.04-2.919.065-.5.791m-11.4 2.24c.492.796.188.971-.936.539-2.371-.909-2.061.016.457 1.364 1.49.797 1.918.808 1.441.035-1.031-1.668.542-1.316 2.652.594 1.572 1.423 1.776 1.444 1.274.135-.329-.857-1.727-2.072-3.107-2.701-1.914-.872-2.336-.864-1.781.034M133.5 219c.34.55 1.604.968 2.809.93 2.112-.068 2.119-.101.191-.93-2.752-1.183-3.731-1.183-3 0m-8.5 4.378c0 .207.787.995 1.75 1.75 1.586 1.243 1.621 1.208.378-.378-1.307-1.666-2.128-2.195-2.128-1.372m5 2.015c0 .216.698.661 1.552.989.89.341 1.291.173.941-.393-.587-.951-2.493-1.406-2.493-.596M29 244.878c0 .483.723 2.607 1.606 4.721l1.606 3.844 1.269-2.471c2.09-4.069 2.75-6.972 1.586-6.972-.587 0-1.067.873-1.067 1.941 0 3.008-1.866 3.442-2.579.6-.594-2.368-2.421-3.623-2.421-1.663m116.885 1.313c-.063 1.27-.035 3.096.063 4.059.098.963-.353 1.75-1.002 1.75-.723 0-.992-.981-.694-2.54.307-1.604.074-2.402-.633-2.166-.615.205-1.119 1.46-1.119 2.789 0 1.893.596 2.486 2.75 2.733 2.595.299 2.75.091 2.75-3.691 0-4.229-1.918-6.89-2.115-2.934m33.115 2.25c0 2.507.45 4.559 1 4.559s1-1.773 1-3.941-.45-4.219-1-4.559c-.611-.378-1 1.156-1 3.941m-124.304-1.1c-.92 1.405-1.405 3.253-1.078 4.107.663 1.726 3.924 2.103 4.875.563.341-.552-.03-.742-.84-.431-1.875.719-2.78-.765-1.602-2.628.63-.996.923-1.06.934-.202.008.688.465 1.25 1.015 1.25 1.371 0 1.253-1.271-.315-3.416-1.238-1.693-1.413-1.648-2.989.757M85 249c0 2.2.45 4 1 4s1-1.8 1-4-.45-4-1-4-1 1.8-1 4m39.439-1.702c-.787 2.052-.216 4.944 1.061 5.369 1.077.359 1.241-5.259.185-6.316-.351-.35-.912.076-1.246.947m-85.287.587c-2.025 1.283-.95 4.57 1.613 4.935 2.687.383 4.006-2.186 2.224-4.333-1.414-1.704-1.963-1.79-3.837-.602m8 0c-2.184 1.384-.942 4.592 1.858 4.8 1.446.107 1.756-.029.74-.324-.983-.285-1.743-1.462-1.735-2.684.012-1.732.206-1.876.946-.706.512.809 1.225 1.177 1.585.817.73-.731-.279-2.797-1.355-2.773-.38.009-1.298.4-2.039.87M66 250.016c0 1.641.45 2.984 1 2.984s1-1.152 1-2.559c0-1.407.408-2.307.906-1.999.498.308.671 1.46.383 2.559-.353 1.352-.03 1.999 1.001 1.999 1.03 0 1.354-.647 1-2-.293-1.118-.031-2 .593-2 .615 0 1.117.9 1.117 2s.48 2 1.066 2c.587 0 .924-1.217.75-2.705-.282-2.412-.775-2.735-4.566-2.984-4.113-.27-4.25-.183-4.25 2.705m11.918-2.839c-.045.178-.286 1.561-.534 3.073-.408 2.48-.163 2.75 2.495 2.75 2.728 0 2.893-.206 2.213-2.75-.405-1.512-1.491-2.895-2.414-3.073-.923-.178-1.715-.178-1.76 0m12.968-.01c-.673 1.968-.558 5.833.174 5.833.517 0 .947-.562.955-1.25.011-.842.349-.76 1.037.25.787 1.156.956.829.735-1.423-.158-1.607-.849-3.107-1.537-3.333-.687-.226-1.301-.261-1.364-.077M101 251.56c0 3.238.398 4.44 1.469 4.44.894 0 1.243-.586.893-1.5-.403-1.05.076-1.5 1.597-1.5 1.779 0 2.116-.497 1.857-2.734-.251-2.176-.877-2.776-3.066-2.94-2.618-.196-2.75.007-2.75 4.234m9.701-3.928c-.385.386-.701 1.751-.701 3.035 0 1.822.548 2.333 2.5 2.333 1.375 0 2.5-.436 2.5-.969 0-.532-.629-.727-1.399-.431-.769.295-1.696.056-2.059-.532-.39-.63.218-1.068 1.482-1.068 1.27 0 1.973-.509 1.726-1.25-.481-1.446-3.02-2.147-4.049-1.118M118 250c0 1.65.45 3 1 3s1-.9 1-2 .45-2 1-2 1-.45 1-1-.9-1-2-1c-1.556 0-2 .667-2 3m12.046-1.556c-1.815 2.188-.521 4.762 2.2 4.376 1.648-.234 2.254-.988 2.254-2.806 0-2.918-2.58-3.827-4.454-1.57m21.039.806c-1.096 2.901-.536 3.75 2.474 3.75 2.68 0 3.37-2.671 1.241-4.8-1.76-1.76-2.759-1.478-3.715 1.05M163 251.5c0 2.475.45 4.5 1 4.5s1-.675 1-1.5.689-1.5 1.531-1.5c2.094 0 2.965-2.697 1.458-4.513-.678-.818-2.079-1.487-3.111-1.487-1.559 0-1.878.764-1.878 4.5m8.918-4.323c-.045.178-.286 1.561-.534 3.073-.408 2.48-.163 2.75 2.495 2.75 2.728 0 2.893-.206 2.213-2.75-.405-1.512-1.491-2.895-2.414-3.073-.923-.178-1.715-.178-1.76 0m12.783.455c-.385.386-.701 1.751-.701 3.035 0 1.91.528 2.333 2.914 2.333 2.69 0 2.857-.211 2.178-2.75-.717-2.679-2.98-4.029-4.391-2.618m7.669 1.618c.331 1.238.609 2.588.616 3 .045 2.45 4.014-2.294 4.014-4.797 0-1.285-1.917-.209-2.311 1.297-.435 1.667-.463 1.667-.573 0-.064-.963-.618-1.75-1.233-1.75-.67 0-.875.9-.513 2.25m6.63.75c0 1.911.51 3 1.406 3 .914 0 1.224-.7.884-2-.37-1.412-.031-2 1.152-2 .922 0 1.398-.45 1.058-1-.34-.55-1.491-1-2.559-1-1.49 0-1.941.697-1.941 3m7.116-.834c-1.12 2.966-.586 3.834 2.357 3.834 2.066 0 2.266-.329 1.636-2.685-.941-3.519-2.886-4.079-3.993-1.149M40 249.941c0 1.132.45 2.059 1 2.059s1-.648 1-1.441-.45-1.719-1-2.059c-.55-.34-1 .309-1 1.441m63.446-.854c-.369.598-.171 1.588.441 2.2.817.817 1.113.528 1.113-1.087 0-2.415-.519-2.787-1.554-1.113m28.085.206c-.428.986-.497 2.074-.155 2.417 1.016 1.015 1.835-.411 1.367-2.382-.414-1.747-.468-1.748-1.212-.035m33.469.648c0 1.132.45 2.059 1 2.059s1-.648 1-1.441-.45-1.719-1-2.059c-.55-.34-1 .309-1 1.441m21.158.059c0 1.375.227 1.938.504 1.25.278-.687.278-1.812 0-2.5-.277-.687-.504-.125-.504 1.25" fill="#1976D2" fill-rule="evenodd"/><path fill-opacity=".216" d="M113.393 1.582c.334.87.607 1.77.607 2 0 .23.408.418.906.418.499 0 .671-.9.384-2-.288-1.1-.969-2-1.514-2-.544 0-.717.712-.383 1.582m-9.947.505c-.369.598-.231 1.528.307 2.066.639.639 1.167.261 1.519-1.087.568-2.171-.677-2.838-1.826-.979m4.929 2.038c.344 1.719.625 4.869.625 7 0 2.843.415 3.875 1.559 3.875.857 0 1.334-.364 1.059-.809-.274-.444-.6-3.594-.723-7C110.727 2.53 110.311 1 109.211 1c-1.103 0-1.308.766-.836 3.125m18.187-2.226c-.703 1.139 2.144 12.05 3.532 13.534 1.764 1.887 1.723-.125-.139-6.84-2.087-7.527-2.444-8.23-3.393-6.694m13.973 1.158c.296.479-.178 3.637-1.054 7.018-1.559 6.016-1.293 8.823.558 5.896.512-.809.957-2.371.99-3.471.032-1.1.649-3.652 1.37-5.671 1.197-3.351 1.149-3.714-.545-4.157-1.021-.267-1.615-.094-1.319.385M94.012 4.25c.006.688.661 3.689 1.454 6.67.793 2.98 1.164 5.869.824 6.42-.373.603.074.734 1.128.33.96-.369 1.881-.67 2.047-.67.166 0-.345-1.876-1.136-4.17-.79-2.293-1.525-5.442-1.633-6.998-.187-2.698-2.709-4.185-2.684-1.582M82.796 6.82c-1.484.592-1.404.821.615 1.772 2.024.954 2.258.858 1.838-.75-.265-1.013-.542-1.81-.616-1.772-.073.039-.9.376-1.837.75M77.2 9.2c-2.952 2.952.412 12.8 4.373 12.8 1.051 0 .907-.52-.548-1.975-2.339-2.339-3.434-6.103-2.777-9.543.548-2.865.542-2.872-1.048-1.282m43.3 4.8c-.34.55.11 1 1 1s1.34-.45 1-1c-.34-.55-.79-1-1-1-.21 0-.66.45-1 1m-55.182.727c-.738.246.158 2.653 2.451 6.581 4.492 7.694 4.109 7.233 5.094 6.125 1.089-1.226-6.028-13.211-7.545-12.706m21.605-.477c-.042.137-.155 1.713-.25 3.5-.183 3.444.707 4.308 1.72 1.668C89.329 16.98 89.112 14 88 14c-.55 0-1.035.113-1.077.25m59.26 1.967c-1.4 1.4-1.545 2.783-.29 2.783.916 0 2.425-3.016 1.814-3.626-.187-.188-.873.192-1.524.843M55 23c0 .55.644 1 1.432 1 3.187 0 6.822 7.976 4.818 10.571-.413.534.065.09 1.062-.987 2.298-2.484 1.526-6.268-1.905-9.334C57.79 21.912 55 21.267 55 23m-5.266 2.75c-1.453 1.614-1.237 2.196 2.783 7.505 2.397 3.166 4.635 5.308 4.974 4.76.338-.547-1.181-3.35-3.375-6.228-2.961-3.882-3.717-5.563-2.931-6.51 1.608-1.937.35-1.527-1.451.473m-17.168 19.5c.736 1.832 13.256 5.656 13.808 4.218.256-.668-2.334-2.028-6.29-3.302-7.848-2.528-8.183-2.568-7.518-.916m-8.654 11.976c-.65 1.251-.824 1.939-.385 1.529.438-.41 3.611.828 7.051 2.752 4.227 2.363 6.386 3.101 6.661 2.276.227-.682-1.629-2.165-4.197-3.355-2.532-1.173-5.356-2.885-6.275-3.804-1.562-1.562-1.749-1.522-2.855.602m15.96-.476c-1.243 1.586-1.208 1.621.378.378.962-.755 1.75-1.543 1.75-1.75 0-.823-.821-.294-2.128 1.372M82.5 61c-.408.66 12.323 1 37.441 1C144.647 62 158 61.649 158 61c0-1.373-74.652-1.373-75.5 0m-51.293 9.96c.842 1.349 1.448 1.598 1.943.798.922-1.492.134-2.758-1.717-2.758-1.19 0-1.23.352-.226 1.96M17 72.376c0 .624 2.811 2.257 6.246 3.629 3.435 1.372 6.585 2.645 7 2.828.415.184.748-.266.741-1-.007-.733-3.157-2.516-7-3.962C19.659 72.243 17 71.674 17 72.376m27 1.026c0 1.099.911 1.598 2.918 1.598C53.382 75 53 72.644 53 112.493v36.28l-4.5.675c-2.475.371-4.5 1.097-4.5 1.613 0 .557 9.133.939 22.465.939 24.392 0 28.71-.7 35.394-5.737 8.229-6.201 9.427-20.755 2.353-28.584-2.332-2.581-9.988-6.359-14.665-7.236l-3.843-.721 4.817-1.828c9.667-3.67 14.417-11.153 13.015-20.505-.875-5.832-5.975-11.508-12.059-13.419-2.434-.765-12.414-1.427-25.727-1.708C46.3 71.853 44 71.973 44 73.402m74.544-.473c-.744 1.204.196 1.623 5.706 2.538l3.75.624v72.682l-4.477.671c-2.462.369-4.756 1.124-5.098 1.677-.412.667 7.914.9 24.727.692l25.348-.313 5.79-2.932c14.648-7.417 22.565-24.53 19.954-43.133-1.976-14.084-9.053-24.08-21.085-29.78L166.5 72.5l-23.643-.328c-16.253-.226-23.852.011-24.313.757M64 92v17h7.532c11.77 0 17.178-3.314 19.465-11.929 2.292-8.631-1.093-17.96-7.487-20.631-2.028-.848-6.75-1.44-11.478-1.44H64v17m75 20.618v37.618l12.787-.398c11.837-.369 13.143-.607 17.578-3.206 9.97-5.843 13.183-15.828 12.443-38.669-.51-15.735-2.505-21.836-8.942-27.346C167.591 76.103 163.13 75 150.134 75H139v37.618m77.008-29.868c.004.963 1.102 2.257 2.439 2.877l2.431 1.127-2.127-2.877c-2.484-3.36-2.754-3.471-2.743-1.127M14.2 84.2c-1.931 1.931-1.38 2.927.861 1.558 1.745-1.065 2.267-.981 3.404.552.848 1.142 1.585 1.419 1.998.75C21.294 85.715 26 85.664 26 87c0 .55.466 1 1.035 1 .702 0 .691-.644-.035-2-1.147-2.143-6-2.827-6-.845 0 .691-.735.49-1.829-.5-2.172-1.966-3.352-2.074-4.971-.455m-1.822 5.997c-.79 1.279-.629 1.352 5.622 2.567 3.025.588 6.119 1.219 6.875 1.402.756.184 1.561-.169 1.789-.783.228-.615-1.066-1.448-2.875-1.853-8.787-1.965-10.87-2.208-11.411-1.333m205.701 5.386c.048 1.165.285 1.402.604.605.289-.722.253-1.585-.079-1.917-.332-.332-.568.258-.525 1.312m8 4c.048 1.165.285 1.402.604.605.289-.722.253-1.585-.079-1.917-.332-.332-.568.258-.525 1.312M8 100.882c0 .55.45 1.278 1 1.618.55.34 1 .168 1-.382s-.45-1.278-1-1.618c-.55-.34-1-.168-1 .382m3 1.021c0 1.501.993 1.732 7.162 1.67 3.944-.04 7.318-.535 7.509-1.1.211-.625-1.162-.884-3.506-.66-2.119.202-5.498-.087-7.509-.642-3.195-.883-3.656-.79-3.656.732m216.031 1.597c0 .55.436 1.675.969 2.5.533.825.969 1.05.969.5s-.436-1.675-.969-2.5c-.533-.825-.969-1.05-.969-.5m-21.448 4.366c-.295.477.458 1.714 1.673 2.75 2.173 1.853 2.185 1.852.727-.053-1.339-1.749-1.317-1.875.216-1.301 1.215.455 1.541.223 1.143-.813-.611-1.593-2.914-1.95-3.759-.583m8.505-.616c.232.138 1.995 1.6 3.917 3.25l3.495 3-2.937-3.25c-1.615-1.787-3.378-3.25-3.917-3.25-.539 0-.79.112-.558.25m-195.683 5.136c-.463 1.206-.96 1.284-2.413.377-2.731-1.705-4.992.649-4.992 5.198v3.716l7.493-.088c5.973-.071 7.494-.395 7.5-1.599.006-1.253-1.185-1.422-6.993-.99-6.755.502-7 .441-7-1.74 0-1.723.574-2.26 2.417-2.26 1.329 0 2.643.563 2.921 1.25.304.754.535.563.583-.481.087-1.896 4.248-3.4 6.152-2.224.747.462 1.017.219.73-.656-.656-1.992-5.675-2.387-6.398-.503M64 131.111v19.11l10.75-.406c12.337-.467 15.848-1.811 19.294-7.386 3.299-5.339 3.85-15.619 1.162-21.695C92.131 113.782 87.914 112 74.54 112H64v19.111m146.503-18.106c.67 1.084 6.497 4.33 6.497 3.619 0-.234-1.602-1.372-3.56-2.527s-3.28-1.646-2.937-1.092m16.076 3.53c1.127 2.697 1.448 5.425 1.05 8.925-.349 3.072-.248 4.259.257 3.04.457-1.1 1.045-5.15 1.308-9 .262-3.85.286-6.179.054-5.175-.404 1.741-.513 1.745-2.358.076-1.904-1.724-1.909-1.691-.311 2.134m15.921 2.127c-3.74 1.971-7.5 5.348-7.5 6.735 0 .576.702.045 1.561-1.18 1.948-2.782 6.841-5.384 8.747-4.652.788.302 1.703-.151 2.032-1.008.757-1.974-.968-1.936-4.84.105m-20.75 1.171c2.049 2.147 2.542 2.091 1.667-.19-.347-.904-1.258-1.643-2.024-1.643-1.061 0-.976.437.357 1.833m-1.539 6.566c.709.77 1.447 1.25 1.639 1.067.593-.564-.91-2.466-1.948-2.466-.54 0-.401.63.309 1.399m21.298 2.947c-1.258 1.92-5.362 4.654-6.987 4.654-.21 0-.578-1.012-.816-2.25-.312-1.616-.472-1.329-.57 1.02l-.136 3.271 3.847-1.963c3.206-1.635 8.357-7.078 6.699-7.078-.275 0-1.192 1.056-2.037 2.346m-39.509.499c0 .465.919 1.677 2.043 2.694 1.923 1.74 2.002 1.743 1.354.054-.419-1.092-.142-2.141.707-2.679 1.006-.636.628-.888-1.354-.899-1.512-.008-2.75.365-2.75.83m11.61 2.106c.611.852 1.609 2.449 2.22 3.549.61 1.1 1.123 1.463 1.14.806.016-.657-.982-2.254-2.22-3.549-1.238-1.295-1.75-1.658-1.14-.806m5.14 1.711c.688.278 1.25.944 1.25 1.48 0 .537-.562.638-1.25.225-.753-.452-.668-.035.213 1.051.916 1.127 1.606 1.374 1.845.659.585-1.756-.596-4.086-2.027-3.998-1.003.062-1.01.188-.031.583m8.408 1.338c0 1.375.227 1.938.504 1.25.278-.687.278-1.812 0-2.5-.277-.687-.504-.125-.504 1.25M207 134.313c0 .172 1.463 1.635 3.25 3.25l3.25 2.937-2.937-3.25c-2.738-3.029-3.563-3.71-3.563-2.937m15.195 6.187c.02 1.65.244 2.204.498 1.231.254-.973.237-2.323-.037-3-.274-.677-.481.119-.461 1.769m3.884-.917c.048 1.165.285 1.402.604.605.289-.722.253-1.585-.079-1.917-.332-.332-.568.258-.525 1.312m-10.117.237c-1.348.596-1.317.897.25 2.43 1.707 1.671 1.788 1.637 1.788-.75 0-1.375-.113-2.468-.25-2.43-.137.039-.942.376-1.788.75m9.117 3.461c-.043.98-.754 2.041-1.579 2.357-.918.353-1.5 1.869-1.5 3.91 0 1.834-.45 3.612-1 3.952-.55.34-1 1.654-1 2.921 0 3.621-5.508 14.782-8.875 17.982-1.68 1.597-2.837 3.254-2.572 3.683.265.429-.876 1.583-2.537 2.563-1.66.981-3.276 2.594-3.59 3.583-.314.99-2.901 4.113-5.748 6.94-2.848 2.826-4.053 4.415-2.678 3.529 3.433-2.211 13-11.137 13-12.129 0-.761 3.461-5.121 8.284-10.436 1.18-1.3 2.304-3.548 2.498-4.995.194-1.448.997-3.344 1.785-4.215.788-.871 1.433-2.265 1.433-3.098 0-3.023 4.086-13.294 6.266-15.75 1.229-1.385 1.49-1.95.581-1.256-1.334 1.018-1.752 1.012-2.171-.03-.325-.81-.548-.627-.597.489m-19.549 4.67c-.356.577.016 1.049.828 1.049.811 0 1.702.563 1.98 1.25.317.785.533.831.583.122.121-1.734-2.61-3.684-3.391-2.421m13.549 3.632c.048 1.165.285 1.402.604.605.289-.722.253-1.585-.079-1.917-.332-.332-.568.258-.525 1.312m-9.884 2.917c.02 1.65.244 2.204.498 1.231.254-.973.237-2.323-.037-3-.274-.677-.481.119-.461 1.769m27.618-.817c.721.289 1.584.253 1.916-.079.332-.332-.258-.568-1.312-.525-1.165.048-1.402.285-.604.604m-9.36 5.567-3.953 4.25 4.25-3.953c3.952-3.676 4.71-4.547 3.953-4.547-.163 0-2.076 1.912-4.25 4.25m8.419-.5c-1.243 1.586-1.208 1.621.378.378 1.666-1.307 2.195-2.128 1.372-2.128-.207 0-.995.787-1.75 1.75m-32.64 3.25c0 1.925.206 2.713.457 1.75.252-.963.252-2.537 0-3.5-.251-.963-.457-.175-.457 1.75M82.5 162c-.408.66 12.323 1 37.441 1 24.706 0 38.059-.351 38.059-1 0-1.373-74.652-1.373-75.5 0m123.5 3.5c-.718.865-.815 1.5-.229 1.5.558 0 1.274-.675 1.591-1.5.316-.825.419-1.5.229-1.5-.19 0-.906.675-1.591 1.5m16.384.756c-1.036 1.215-1.209 1.715-.384 1.111.825-.604 2.153-1.301 2.951-1.55.929-.289 1.067-.688.383-1.11-.587-.363-1.914.334-2.95 1.549m-39.828.994c.882 2.871 3.648 8.87 2.954 6.407-1.639-5.823-1.685-6.657-.368-6.672 1.05-.012 1.017-.236-.142-.985-2.409-1.557-3.184-1.16-2.444 1.25m6.73 2.051c1.218 1.265 2.399 2.168 2.625 2.006.583-.419-3.055-4.307-4.03-4.307-.445 0 .187 1.035 1.405 2.301m38.742 1.165c-1.914 2.306-.812 3.841 1.484 2.066 1.605-1.241 1.651-1.42.238-.927-2.581.898-2.131-.516.5-1.574 1.523-.612 1.724-.925.622-.968-.895-.034-2.175.597-2.844 1.403M239 172.924c1.333.956 1.333 1.196 0 2.152-1.333.957-1.333 1.031 0 .667.825-.225 1.5-1.01 1.5-1.743 0-.733-.675-1.518-1.5-1.743-1.333-.364-1.333-.29 0 .667m-46.805 2.576c.02 1.65.244 2.204.498 1.231.254-.973.237-2.323-.037-3-.274-.677-.481.119-.461 1.769m41.278-.456c-.325.526.336.956 1.468.956 2.415 0 2.658-.556.591-1.349-.807-.31-1.734-.133-2.059.393m-10.334 1.989c-1.298 1.082-3.323 2.003-4.5 2.046-1.176.043-1.554.313-.838.6 1.757.704 6.924-1.521 7.596-3.271.682-1.778.599-1.754-2.258.625m-37.06.55c.048 1.165.285 1.402.604.605.289-.722.253-1.585-.079-1.917-.332-.332-.568.258-.525 1.312m11.428.406c-.35.566.051.734.941.393 1.732-.665 2.049-1.382.611-1.382-.518 0-1.216.445-1.552.989m-6.895 2.58c-.461 1.201-.981 1.369-1.894.612-.984-.817-1.174-.166-.873 2.989l.384 4.033 1.904-4.25c1.046-2.338 1.725-4.428 1.508-4.645-.217-.217-.68.351-1.029 1.261m7.537.098c-.743.805-1.144 1.671-.892 1.923.252.252 1.036-.238 1.743-1.09 1.669-2.011.916-2.749-.851-.833M210 182c-1.282.828-1.246.972.25.985.963.008 1.75-.435 1.75-.985 0-1.22-.113-1.22-2 0m-17.817 1.217c-1.41 1.41-1.567 3.783-.25 3.783.982 0 2.541-3.859 1.842-4.559-.225-.224-.941.125-1.592.776m38.817-.839c0 .207.761.995 1.692 1.75.945.766 1.381.854.988.198-.411-.685.03-1.366 1.058-1.634 1.099-.287.727-.504-.988-.576-1.512-.064-2.75.054-2.75.262m-34.43 3.857-2.93 3.002 3.117-1.611c3.396-1.756 4.709-3.231 3.509-3.941-.421-.249-2.084.898-3.696 2.55m24.911-1.674c2.111 1.595 4.61 1.576 4.647-.036.012-.536-.574-1.133-1.303-1.326-.878-.233-.818.007.175.71 1.294.915 1.26 1.062-.25 1.076-.963.008-1.75-.435-1.75-.985s-.787-.986-1.75-.968c-1.568.028-1.544.187.231 1.529m14.73.04c-.71.769-.849 1.399-.309 1.399 1.038 0 2.541-1.902 1.948-2.466-.192-.183-.93.297-1.639 1.067m-57.945 6.103c-1.637 2.088-2.768 4.391-2.514 5.117.605 1.729-3.17 5.695-6.883 7.233-1.613.668-2.736 1.413-2.494 1.654C167.938 206.271 181 194.403 181 191.42c0-.441-.661.071-1.468 1.139-.808 1.067-1.483 1.396-1.5.73-.018-.666.948-2.124 2.145-3.239 1.198-1.116 1.927-2.279 1.621-2.586-.306-.306-1.896 1.152-3.532 3.24m34.547-3.021c.721.289 1.584.253 1.916-.079.332-.332-.258-.568-1.312-.525-1.165.048-1.402.285-.604.604m8.27-.433c.23.137 1.655 1.341 3.167 2.674 1.512 1.334 2.75 2.139 2.75 1.789 0-.973-4.249-4.713-5.355-4.713-.538 0-.791.113-.562.25m-12.775 1.539c-.755.48.08 1.156 2.278 1.844 3.346 1.047 3.409 1.019 1.787-.773-1.862-2.058-2.323-2.179-4.065-1.071m-17.045 2.372c-.121 1.61.122 1.854.988.988.757-.757.812-1.486.161-2.137s-1.043-.259-1.149 1.149m-60.059 1.884c-.672 1.075-1.861 1.955-2.644 1.955-.783 0-2.39 1.357-3.571 3.015-2.352 3.303-6.773 5.966-8.739 5.264-.687-.245-1.25-.056-1.25.42 0 .475 1.125.958 2.5 1.072 1.375.113 2.5-.238 2.5-.782s1.463-1.041 3.25-1.105c1.787-.064 2.472-.32 1.521-.569-1.577-.414-1.538-.711.438-3.384 1.192-1.612 2.688-2.931 3.324-2.931 1.33 0 5.014-3.787 4.34-4.461-.247-.246-.998.431-1.669 1.506m6.237 1.51c-1.85 1.483-1.832 1.502.395.419 2.989-1.454 4.271-.257 1.721 1.608-1.066.78-1.458 1.418-.871 1.418 1.598 0 3.58-2.76 2.841-3.956-.883-1.429-1.809-1.313-4.086.511M225 195c0 .55.702 1 1.559 1s1.281-.45.941-1c-.34-.55-1.041-1-1.559-1s-.941.45-.941 1m-105.8 1.2c-.66.66-1.2 1.86-1.2 2.667 0 1.697 1.477.55 1.545-1.2.025-.642.621-1.043 1.325-.892.703.151.994-.187.645-.75-.795-1.286-.859-1.281-2.315.175m52.672.55c-1.243 1.586-1.208 1.621.378.378 1.666-1.307 2.195-2.128 1.372-2.128-.207 0-.995.787-1.75 1.75m15.618.266c-.346.559-1 .787-1.454.506-.455-.281-1.084.162-1.4.984-.315.822-.34 1.494-.055 1.494.902 0 6.419-3.03 6.419-3.526 0-.911-2.887-.465-3.51.542m-53.425 1.405c-.967 1.166-.811 1.325.867.887 1.125-.295 1.799-.934 1.498-1.422-.733-1.185-.984-1.129-2.365.535m17.878.352c-1.339.95-4.012 2.522-5.939 3.493-1.927.972-2.604 1.477-1.504 1.122s3.125-.847 4.5-1.094c2.332-.419 2.25-.209-1.235 3.129-2.055 1.967-3.292 3.577-2.75 3.577 1.222 0 3.691-2.437 7.41-7.313 3.26-4.274 3.069-5.431-.482-2.914m23.057 4.88-5.5 2.286h6.5c5.159 0 6.114-.224 4.63-1.086-1.48-.86-1.59-1.26-.529-1.915 2.979-1.842.067-1.433-5.101.715m12.264-1.935c1.52.229 3.77.223 5-.014 1.23-.237-.014-.425-2.764-.418-2.75.008-3.756.202-2.236.432m9.486-.056c.688.278 1.813.278 2.5 0 .688-.277.125-.504-1.25-.504s-1.937.227-1.25.504M105 202.917c0 .595.415 1.083.923 1.083s2.269 1.132 3.914 2.516l2.99 2.516-1.163-2.465c-.64-1.355-1.838-2.713-2.664-3.016a43.37 43.37 0 0 1-2.75-1.135c-.687-.32-1.25-.095-1.25.501m98.788.92c1.808.965 3.026 2.015 2.707 2.335-.32.319.099.842.93 1.161 3.454 1.325 2.331-1.417-1.35-3.295-4.865-2.482-6.9-2.661-2.287-.201m-76.094-.198c-.817.817.115 2.361 1.424 2.361.55 0 .725-.445.389-.989-.35-.566.051-.734.941-.393.854.328 1.552.098 1.552-.511 0-1.183-3.239-1.534-4.306-.468m27.342 2.905c-1.906 1.345-4.939 2.722-6.742 3.061-1.802.338-3.003 1.057-2.668 1.599.335.541 1.681.779 2.991.529 1.311-.251 2.383.022 2.383.606 0 .671.441.62 1.2-.139.66-.66 3.022-1.232 5.25-1.27 3.178-.055 3.62-.256 2.05-.93-1.1-.473-1.405-.891-.679-.93.727-.038 2.056-.804 2.954-1.702 1.509-1.509 1.447-1.574-.822-.863a141.396 141.396 0 0 0-3.953 1.302c-1.088.386-.977-.063.405-1.637 2.413-2.749 1.951-2.676-2.369.374m28.777-.861c.721.289 1.584.253 1.916-.079.332-.332-.258-.568-1.312-.525-1.165.048-1.402.285-.604.604m9.437.006c.963.252 2.537.252 3.5 0 .963-.251.175-.457-1.75-.457s-2.713.206-1.75.457m-79.437.994c.721.289 1.584.253 1.916-.079.332-.332-.258-.568-1.312-.525-1.165.048-1.402.285-.604.604m20 0c.721.289 1.584.253 1.916-.079.332-.332-.258-.568-1.312-.525-1.165.048-1.402.285-.604.604m-15.775.649c.254.233 4.675 1.626 9.823 3.095 5.149 1.47 10.436 3.377 11.75 4.238 2.753 1.803 3.249.75.639-1.357-1.595-1.287-1.529-1.353.75-.747 1.952.518 2.245.395 1.337-.562-.64-.674-3.34-1.434-6-1.689-2.66-.255-5.962-.842-7.337-1.305-2.872-.968-11.656-2.308-10.962-1.673m-2.209 4.879c2.286 2.538 7.171 4.344 7.171 2.65 0-.473-.839-.861-1.865-.861s-3.163-.985-4.75-2.188l-2.885-2.188 2.329 2.587m46.921-.549c.688.278 1.813.278 2.5 0 .688-.277.125-.504-1.25-.504s-1.937.227-1.25.504m6.75 1.831c3.756 1.772 10.367 7.507 8.653 7.507-.699 0-.993.45-.653 1 1.065 1.724 3.716 1.209 2.742-.533-1.41-2.518-10.332-9.47-12.101-9.428-.927.022-.335.655 1.359 1.454m-20.301 2.549c2.035 1.074 4.198 2.742 4.808 3.706.749 1.183.984 1.265.724.252-.426-1.657-6.388-6.026-8.129-5.956-.606.025.563.923 2.597 1.998m-28.195 2.458c1.373 1.65 2.608 3.188 2.746 3.417.138.229.47.196.74-.073.269-.269-.967-1.807-2.747-3.417l-3.236-2.927 2.497 3m40.809-1.817c.721.289 1.584.253 1.916-.079.332-.332-.258-.568-1.312-.525-1.165.048-1.402.285-.604.604m-30.155 1.024c-1.715.442-1.693.58.314 1.986 1.187.831 2.428 1.24 2.759.909.331-.331.077-.602-.564-.602-1.823 0-1.368-1.801.583-2.311 1.13-.295 1.219-.457.25-.457-.825 0-2.329.214-3.342.475m5.906 1.586c.376.986.935 1.541 1.243 1.233.308-.307.001-1.114-.683-1.793-.988-.98-1.102-.865-.56.56m-9.64 4.987c2.522 2.829 4.258 3.849 2.076 1.22-1.363-1.642-.304-1.978 1.878-.596.758.48 1.069 1.373.691 1.984-.378.612-.21 1.112.372 1.112s1.059-.659 1.059-1.465c0-1.573-3.795-4.073-4.744-3.125-.314.315-1.288.028-2.164-.638-.876-.666-.501.012.832 1.508m26.422-.223c3.084 2.426 4.006 2.479 2.55.147-.617-.987-1.999-1.861-3.071-1.942-1.719-.13-1.658.082.521 1.795m-28.614 3.028c.415 1.584.748 1.764 1.391.75.63-.994.87-.824.941.665.053 1.132.318 1.443.609.716.533-1.326-1.319-4.216-2.702-4.216-.431 0-.538.938-.239 2.085m-95.213 21.614c1.686 4.037 2.481 5.195 2.481 3.617 0-2.079-2.227-7.316-3.111-7.316-.504 0-.22 1.664.63 3.699M146 249c0 2.2.349 4 .776 4 .427 0 .605-1.8.395-4-.209-2.2-.559-4-.776-4-.217 0-.395 1.8-.395 4m33.829 0c-.21 2.2-.032 4 .395 4 .427 0 .776-1.8.776-4s-.178-4-.395-4c-.217 0-.567 1.8-.776 4m-55.042 1c.242 1.65.614 3 .826 3 .213 0 .387-1.35.387-3s-.372-3-.827-3c-.455 0-.628 1.35-.386 3m-86.451-.433c-.331.862-.148 2.021.406 2.575.677.677 1.008.163 1.008-1.567 0-2.925-.533-3.305-1.414-1.008m3.664.492c0 1.132.43 1.793.956 1.468.526-.325.703-1.252.393-2.059-.793-2.067-1.349-1.824-1.349.591m4.336-.492c-.331.862-.092 2.077.531 2.7.844.844 1.133.444 1.133-1.567 0-3.009-.749-3.518-1.664-1.133m7.664.374c0 1.068.385 2.179.856 2.47.47.291.643-.583.383-1.941-.564-2.951-1.239-3.239-1.239-.529m3-.941c0 .55.477 1 1.059 1s.781-.45.441-1-.816-1-1.059-1-.441.45-.441 1m9 1.5c0 1.375.45 2.5 1 2.5s1-1.125 1-2.5-.45-2.5-1-2.5-1 1.125-1 2.5m4.195 0c.02 1.65.244 2.204.498 1.231.254-.973.237-2.323-.037-3-.274-.677-.481.119-.461 1.769m2.805 0c0 1.375.388 2.5.861 2.5.474 0 .647-1.125.384-2.5s-.651-2.5-.862-2.5c-.21 0-.383 1.125-.383 2.5m8.195 0c.02 1.65.244 2.204.498 1.231.254-.973.237-2.323-.037-3-.274-.677-.481.119-.461 1.769m4.56 0c-.263 1.375-.09 2.5.384 2.5.473 0 .861-1.125.861-2.5s-.173-2.5-.383-2.5c-.211 0-.599 1.125-.862 2.5m16.517 1.5c0 2.475.195 3.488.434 2.25.238-1.238.238-3.262 0-4.5-.239-1.238-.434-.225-.434 2.25m3.228-1.5c0 1.27.338 2.1.75 1.845.412-.254.75-1.085.75-1.845s-.338-1.591-.75-1.845c-.412-.255-.75.575-.75 1.845m4.836-.933c-.331.862-.204 1.965.281 2.45.511.511.883-.151.883-1.567 0-2.839-.32-3.082-1.164-.883M113 249c0 .55.477 1 1.059 1s.781-.45.441-1-.816-1-1.059-1-.441.45-.441 1m5 1.5c0 1.375.388 2.5.861 2.5.474 0 .647-1.125.384-2.5s-.651-2.5-.862-2.5c-.21 0-.383 1.125-.383 2.5m12.158-.5c0 1.375.227 1.938.504 1.25.278-.687.278-1.812 0-2.5-.277-.687-.504-.125-.504 1.25m3.198.589c-.079 1.319.259 2.149.75 1.845 1.086-.671 1.18-3.139.144-3.779-.412-.255-.815.616-.894 1.934m8.98-1.022c-.331.862-.148 2.021.406 2.575.677.677 1.008.163 1.008-1.567 0-2.925-.533-3.305-1.414-1.008m11.859.933c.02 1.65.244 2.204.498 1.231.254-.973.237-2.323-.037-3-.274-.677-.481.119-.461 1.769M163 252c0 2.2.45 4 1 4s1-1.8 1-4-.45-4-1-4-1 1.8-1 4m4.03-1.45c.027 2.586.163 2.722 1.104 1.104.769-1.324.761-2.159-.03-2.95-.805-.805-1.096-.305-1.074 1.846m4.681-.551c-.288 1.099-.115 2.251.383 2.559.498.308.906-.592.906-1.999 0-3.064-.57-3.312-1.289-.56m3.484.501c.02 1.65.244 2.204.498 1.231.254-.973.237-2.323-.037-3-.274-.677-.481.119-.461 1.769m11.805-.059c0 1.407.45 2.559 1 2.559s1-.873 1-1.941-.45-2.219-1-2.559c-.567-.351-1 .49-1 1.941m5.714-.425c.29 1.108 1 2.307 1.577 2.664.659.407.8 0 .379-1.098-.369-.96-.67-2.159-.67-2.664a.915.915 0 0 0-.906-.918c-.499 0-.67.907-.38 2.016m7.481.484c.02 1.65.244 2.204.498 1.231.254-.973.237-2.323-.037-3-.274-.677-.481.119-.461 1.769m9 0c.02 1.65.244 2.204.498 1.231.254-.973.237-2.323-.037-3-.274-.677-.481.119-.461 1.769m-118.802-.029c.119.809.601 1.822 1.072 2.25.471.429.486.142.031-.641-.614-1.058-.4-1.257.84-.781.915.351 1.664.25 1.664-.223 0-.474-.712-1.135-1.582-1.469-2.183-.838-2.27-.801-2.025.864m-12.85.46c-.317.512-.118 1.213.441 1.559.559.345 1.016-.074 1.016-.931 0-1.757-.6-2.015-1.457-.628M151 251.5c0 .825.436 1.5.969 1.5.532 0 .709-.675.393-1.5-.317-.825-.753-1.5-.969-1.5-.216 0-.393.675-.393 1.5m33.667-.833c-.932.932-.832 2.333.166 2.333.459 0 .834-.675.834-1.5 0-1.699-.073-1.76-1-.833m21.412.916c.048 1.165.285 1.402.604.605.289-.722.253-1.585-.079-1.917-.332-.332-.568.258-.525 1.312" fill="#1976D2" fill-rule="evenodd"/><path fill-opacity=".491" d="M109.215 5.5c-.009 2.75.345 6.125.785 7.5.729 2.277.804 2.188.843-1 .023-1.925-.331-5.3-.786-7.5l-.827-4-.015 5m17.644-3.576C126.28 3.66 129.202 15 130.229 15c1.046 0 .973-.527-1.108-7.969-.995-3.558-2.013-5.856-2.262-5.107m13.026 7.631c-.833 3.606-1.216 6.74-.851 6.966.365.225 1.239-2.162 1.942-5.306.703-3.143 1.495-6.277 1.758-6.965.264-.687.072-1.25-.427-1.25-.498 0-1.588 2.95-2.422 6.555M94.33 4.75c.246.412.98 3.338 1.63 6.5.65 3.162 1.539 5.75 1.974 5.75.436 0 .093-2.925-.762-6.5S95.226 4 94.749 4c-.477 0-.665.338-.419.75M83.5 8c.34.55.816 1 1.059 1S85 8.55 85 8s-.477-1-1.059-1-.781.45-.441 1m-7.43 4.685c-.113 3.506 1.654 7.099 4.132 8.4 2.229 1.17 2.245 1.147.559-.756-.956-1.079-2.387-3.732-3.179-5.895-1.007-2.749-1.462-3.276-1.512-1.749m11.191 4.053c.103 2.059.511 2.89 1.118 2.283.608-.608.548-1.787-.163-3.238-1.053-2.149-1.109-2.093-.955.955M68.163 21c1.814 3.3 3.662 6 4.107 6 .445 0-.672-2.695-2.481-5.988-1.809-3.294-3.657-5.994-4.107-6-.449-.007.667 2.688 2.481 5.988m-8.975 4.75c1.409 1.512 2.808 3.425 3.108 4.25.381 1.046.57.876.625-.561.085-2.229-3.28-6.439-5.147-6.439-.632 0 .005 1.238 1.414 2.75m-7.079 6.5c2.362 2.888 4.429 5.438 4.593 5.667.164.229.53.184.814-.1C58.217 37.116 50.087 27 48.822 27c-.555 0 .924 2.362 3.287 5.25M33 45.01c0 .704 2.135 1.528 11.75 4.536.688.215 1.25.047 1.25-.373 0-.421-2.925-1.716-6.5-2.879-3.575-1.162-6.5-1.74-6.5-1.284m-3.18 15.603c3.475 1.969 6.54 3.361 6.809 3.091.652-.651-9.989-6.708-11.751-6.689-.758.009 1.466 1.628 4.942 3.598M17.5 72.72c1.445 1.364 11.724 5.389 12.298 4.815.267-.267-1.491-1.331-3.906-2.365-5.99-2.565-9.642-3.631-8.392-2.45m101.499.471c0 .38 1.913 1.069 4.251 1.532l4.25.84.262 36.599.262 36.598-2.262.607c-1.244.333-3.275.612-4.512.619-1.237.008-2.25.464-2.25 1.014 0 1.747 41.518 1.277 48.53-.55 12.034-3.134 20.274-11.029 24.485-23.459 3.134-9.25 2.549-24.895-1.24-33.171-3.451-7.537-9.724-14.157-16.633-17.55-5.597-2.748-5.84-2.774-30.393-3.27-13.614-.275-24.751-.189-24.75.191m-73.499.765c1.1.497 3.237.935 4.75.974L53 75v73.767l-2.25.603c-1.237.331-3.263.609-4.5.616-1.237.008-2.25.5-2.25 1.095 0 .754 7.016.96 23.25.682 19.246-.329 24.079-.707 28.065-2.196 9.969-3.725 14.915-12.861 12.622-23.317-1.876-8.555-7.42-12.832-20.391-15.73-2.869-.641-2.787-.728 2.837-3.014 9.736-3.957 12.619-7.89 12.613-17.206-.004-7.247-2.343-11.38-8.207-14.506-4.076-2.173-5.454-2.298-27.789-2.514-14.612-.142-22.744.114-21.5.676M64 91.5V109l8.25-.002c10.483-.002 14.381-1.775 17.5-7.96 3.88-7.695 2.62-17.674-2.871-22.727-2.864-2.635-9.33-4.253-17.129-4.287L64 74v17.5m74.502-16.366c-.29.756-.409 17.798-.265 37.87l.263 36.496 12 .287c14.632.35 18.657-.887 24.501-7.526 6.155-6.992 7.233-12.055 6.826-32.054-.293-14.354-.634-17.342-2.422-21.218-2.523-5.469-6.953-10.063-12.085-12.533-5.067-2.439-27.986-3.49-28.818-1.322M15.067 83.958c-.839.519-.397.937 1.341 1.269 1.426.273 2.592.156 2.592-.259 0-1.199-2.561-1.857-3.933-1.01m6.373 1.139c-.472.764-.329.953.385.511.623-.385 2.095-.186 3.27.443 1.709.915 2.048.874 1.692-.204-.582-1.767-4.389-2.3-5.347-.75m-8.101 5.642c.35.567 2.724 1.343 5.277 1.726 2.552.383 5.257.933 6.012 1.222.755.29 1.372.086 1.372-.452 0-.539-1.913-1.283-4.25-1.655-2.337-.372-5.33-.945-6.649-1.274-1.521-.379-2.166-.22-1.762.433m-2.341 11.511c.001.412 1.746.75 3.877.75s5.281.281 7 .625c1.902.38 3.125.217 3.125-.418 0-.593-3.021-1.186-7.002-1.375-3.851-.183-7.001.006-7 .418m8.209 10c-.794.957-.258 1.25 2.293 1.25s3.087-.293 2.293-1.25c-.571-.687-1.603-1.25-2.293-1.25-.69 0-1.722.563-2.293 1.25M64 130.475v19.697l11.43-.336c12.364-.363 14.492-1.172 19.008-7.221 1.739-2.329 2.062-4.228 2.062-12.115 0-7.947-.316-9.778-2.105-12.177-3.994-5.358-7.856-6.769-19.645-7.174l-10.75-.37v19.696M12 113.75c0 .412 1.082.75 2.405.75 1.322 0 2.195-.338 1.94-.75-.254-.412-1.336-.75-2.404-.75-1.068 0-1.941.338-1.941.75m2.5 6.25c-2.506.638-2.095.78 2.5.866 3.025.057 6.175-.333 7-.866 1.827-1.18-4.861-1.18-9.5 0m55.695 130.5c.02 1.65.244 2.204.498 1.231.254-.973.237-2.323-.037-3-.274-.677-.481.119-.461 1.769m130 0c.02 1.65.244 2.204.498 1.231.254-.973.237-2.323-.037-3-.274-.677-.481.119-.461 1.769m-46.116.083c.048 1.165.285 1.402.604.605.289-.722.253-1.585-.079-1.917-.332-.332-.568.258-.525 1.312m55 0c.048 1.165.285 1.402.604.605.289-.722.253-1.585-.079-1.917-.332-.332-.568.258-.525 1.312" fill="#1976D2" fill-rule="evenodd"/></svg>